<?xml version="1.0" encoding="utf-8"?>
<!-- Generator: Adobe Illustrator 27.9.6, SVG Export Plug-In . SVG Version: 9.03 Build 54986)  -->
<svg version="1.1" id="Layer_1" xmlns="http://www.w3.org/2000/svg" xmlns:xlink="http://www.w3.org/1999/xlink" x="0px" y="0px"
	 viewBox="0 0 3407.35 850.39" style="enable-background:new 0 0 3407.35 850.39;" xml:space="preserve">
<style type="text/css">
	.st0{fill:#FF3C28;}
	.st1{fill:none;}
</style>
<g>
	<g>
		<path class="st0" d="M871.85,404.95H649.13V347.1l23.14-23.14H851.6v-40.5H698.01c-2.68,0-5.31,0.53-7.75,1.54
			s-4.67,2.49-6.57,4.39l-69.13,69.13c-1.9,1.9-3.38,4.14-4.39,6.57c-1.01,2.43-1.54,5.06-1.54,7.75v52.36
			c0,5.59,2.27,10.65,5.93,14.32c3.66,3.66,8.73,5.93,14.32,5.93H851.6v57.85l-23.14,23.14H608.63v40.49h194.09
			c2.68,0,5.31-0.53,7.75-1.54c2.43-1.01,4.67-2.49,6.57-4.39l69.13-69.13c1.9-1.9,3.38-4.14,4.39-6.57
			c1.01-2.43,1.54-5.06,1.54-7.75V425.2c0-5.59-2.27-10.65-5.93-14.32S877.44,404.95,871.85,404.95z"/>
		<path class="st0" d="M487.15,526.43V372.84c0-2.68-0.53-5.31-1.54-7.75s-2.49-4.67-4.39-6.57l-69.13-69.13
			c-1.9-1.9-4.14-3.38-6.57-4.39s-5.06-1.54-7.75-1.54h-113.1v40.5h138.84l23.14,23.14v179.33H284.67v40.49h283.46v-40.49
			L487.15,526.43z"/>
		<path class="st0" d="M1320.18,526.43l-23.14-23.14V283.46h-40.49v194.09c0,2.68,0.53,5.31,1.54,7.75
			c1.01,2.43,2.49,4.67,4.39,6.57l69.13,69.13c1.9,1.9,4.14,3.38,6.57,4.39c2.43,1.01,5.06,1.54,7.75,1.54h194.09v-40.49H1320.18z"
			/>
		<path class="st0" d="M1149.35,378.74l-28.63-28.63L973.09,497.74V283.46h-40.49v194.09c0,2.68,0.53,5.31,1.54,7.75
			s2.49,4.67,4.39,6.57l69.13,69.13c1.9,1.9,4.14,3.38,6.57,4.39c2.43,1.01,5.06,1.54,7.75,1.54h194.09v-40.49h-214.4
			L1149.35,378.74z"/>
	</g>
	<g>
		<path class="st0" d="M1620.96,283.42h13.38v13.38h-13.38V283.42z M1621.86,305.71h11.59v74.31h-11.59V305.71z"/>
		<path class="st0" d="M1656.04,305.71h9.21v6.69h2.53l7.73-6.69h34.18l15.31,15.31v59.01h-11.44l0.15-54.4l-9.07-9.22h-25.86
			l-11.3,9.51l0.15,54.1h-11.59V305.71z"/>
		<path class="st0" d="M1745.51,369.48h48.16l6.24-6.39v-9.21l-6.24-6.39h-36.27l-12.63-12.19V318.2l12.49-12.49h50.09l0.3,10.7
			h-45.03l-6.39,6.09v8.17l6.24,6.24h36.41l12.34,12.48l0.15,18.13l-12.34,12.49h-53.21L1745.51,369.48z"/>
		<path class="st0" d="M1836.33,371.11v-54.84h-14.86l-0.15-10.55h14.86v-19.32h11.59v19.32h27.5l-0.15,10.55h-27.5v50.24l2.82,2.82
			h25.42v10.7h-30.62L1836.33,371.11z"/>
		<path class="st0" d="M1890.28,283.42h13.38v13.38h-13.38V283.42z M1891.17,305.71h11.59v74.31h-11.59V305.71z"/>
		<path class="st0" d="M1931.45,371.11v-54.84h-14.86l-0.15-10.55h14.86v-19.32h11.59v19.32h27.5l-0.15,10.55h-27.5v50.24l2.82,2.82
			h25.42v10.7h-30.62L1931.45,371.11z"/>
		<path class="st0" d="M1985.69,364.57v-58.86h11.3v54.55l9.21,9.07h23.34l11-9.51v-54.1h11.59v74.31h-9.21l-0.15-6.69h-2.23
			l-7.88,6.69H2001L1985.69,364.57z"/>
		<path class="st0" d="M2080.81,371.11v-54.84h-14.86l-0.15-10.55h14.86v-19.32h11.59v19.32h27.5l-0.15,10.55h-27.5v50.24l2.82,2.82
			h25.42v10.7h-30.62L2080.81,371.11z"/>
		<path class="st0" d="M2134.32,363.38v-40.87l16.5-16.8h40.28l16.8,16.65v41.02l-16.8,16.65h-40.28L2134.32,363.38z
			 M2186.04,369.33l10.4-10.4v-32.1l-10.4-10.4h-30.02l-10.4,10.26v32.25l10.55,10.4H2186.04z"/>
		<path class="st0" d="M2278.19,369.48h48.16l6.24-6.39v-9.21l-6.24-6.39h-36.27l-12.63-12.19V318.2l12.49-12.49h50.09l0.3,10.7
			h-45.03l-6.39,6.09v8.17l6.24,6.24h36.41l12.34,12.48l0.15,18.13l-12.34,12.49h-53.21L2278.19,369.48z"/>
		<path class="st0" d="M2362.31,364.57v-58.86h11.3v54.55l9.21,9.07h23.34l11-9.51v-54.1h11.59v74.31h-9.21l-0.15-6.69h-2.23
			l-7.88,6.69h-31.66L2362.31,364.57z"/>
		<path class="st0" d="M2451.34,305.71h9.21l0.15,7.88h2.53l9.36-7.88h32.7l16.5,16.65v41.02l-16.5,16.65h-42.36v29.73h-11.59
			V305.71z M2499.94,369.33l10.4-10.4v-32.1l-10.4-10.4h-24.23l-12.93,10.85v42.06H2499.94z"/>
		<path class="st0" d="M2541.56,363.38v-40.87l16.5-16.8h38.64l16.65,16.65v26.75h-60.49v9.81l10.4,10.4h44.59v10.7h-49.79
			L2541.56,363.38z M2602.05,338.41l-0.15-11.59l-10.4-10.4h-28.24l-10.4,10.4l0.15,11.59H2602.05z"/>
		<path class="st0" d="M2632.82,305.71h9.21l0.15,6.54h2.38l7.43-6.54h30.32v10.7h-26.9l-11.15,9.22l0.15,54.4h-11.59V305.71z"/>
		<path class="st0" d="M2691.82,283.42h13.38v13.38h-13.38V283.42z M2692.71,305.71h11.59v74.31h-11.59V305.71z"/>
		<path class="st0" d="M2725.56,363.38v-40.87l16.5-16.8h40.28l16.8,16.65v41.02l-16.8,16.65h-40.28L2725.56,363.38z
			 M2777.28,369.33l10.4-10.4v-32.1l-10.4-10.4h-30.02l-10.4,10.26v32.25l10.55,10.4H2777.28z"/>
		<path class="st0" d="M2820.39,305.71h9.21l0.15,6.54h2.38l7.43-6.54h30.32v10.7h-26.9l-11.15,9.22l0.15,54.4h-11.59V305.71z"/>
		<path class="st0" d="M2926.51,363.38v-40.87l16.5-16.8h42.36v-29.73h11.44v104.04h-9.22V372h-2.53l-9.36,8.03H2943L2926.51,363.38
			z M2972.58,369.33l12.78-10.85v-42.06h-37.16l-10.4,10.26v32.25l10.55,10.4H2972.58z"/>
		<path class="st0" d="M3018.95,363.38v-40.87l16.5-16.8h38.64l16.65,16.65v26.75h-60.49v9.81l10.4,10.4h44.59v10.7h-49.79
			L3018.95,363.38z M3079.45,338.41l-0.15-11.59l-10.4-10.4h-28.24l-10.4,10.4l0.15,11.59H3079.45z"/>
		<path class="st0" d="M1620.52,550.28v-40.87l16.5-16.8h38.64l16.65,16.65v26.75h-60.49v9.81l10.4,10.4h44.59v10.7h-49.79
			L1620.52,550.28z M1681.01,525.31l-0.15-11.59l-10.4-10.4h-28.24l-10.4,10.4l0.15,11.59H1681.01z"/>
		<path class="st0" d="M1711.78,492.61h9.21v6.69h2.53l7.73-6.69h34.18l15.31,15.31v59.01h-11.44l0.15-54.4l-9.07-9.22h-25.86
			l-11.3,9.51l0.15,54.1h-11.59V492.61z"/>
		<path class="st0" d="M1806.9,586.1h47.71l5.65-5.8v-19.47h-2.23l-7.28,6.09h-32.85l-16.5-16.65v-40.87l16.5-16.8h53.8v92
			l-12.04,12.04h-52.91L1806.9,586.1z M1847.47,556.22l12.93-10.85l-0.15-42.06h-37.16l-10.4,10.26v32.25l10.55,10.4H1847.47z"/>
		<path class="st0" d="M1893.1,550.28v-40.87l16.5-16.8h38.64l16.65,16.65v26.75h-60.49v9.81l10.4,10.4h44.59v10.7h-49.79
			L1893.1,550.28z M1953.59,525.31l-0.15-11.59l-10.4-10.4h-28.24l-10.4,10.4l0.15,11.59H1953.59z"/>
		<path class="st0" d="M1984.36,492.61h9.21v6.69h2.53l7.73-6.69h34.18l15.31,15.31v59.01h-11.44l0.15-54.4l-9.07-9.22h-25.86
			l-11.3,9.51l0.15,54.1h-11.59V492.61z"/>
		<path class="st0" d="M2076.21,462.89h11.3v35.37h2.53l6.54-5.65h33.14l15.31,15.31v59.01h-11.44l0.15-54.4l-9.36-9.22h-24.67
			l-12.19,10.26v53.36h-11.3V462.89z"/>
		<path class="st0" d="M2163.46,554.44l-0.15-19.92l13.82-13.67h43.4l0.15-9.36l-8.03-8.32h-39.83v-10.55h44.74l14.42,14.42v59.9
			h-9.07v-7.73h-2.38l-9.36,7.73h-35.37L2163.46,554.44z M2207.75,556.37l12.78-10.85v-13.97h-38.35l-7.43,7.28l0.15,11.15
			l6.09,6.39H2207.75z"/>
		<path class="st0" d="M2253.97,492.61h9.21l0.15,6.54h2.38l7.43-6.54h30.32v10.7h-26.9l-11.15,9.22l0.15,54.4h-11.59V492.61z"/>
		<path class="st0" d="M2312.97,470.32h13.38v13.38h-13.38V470.32z M2313.87,492.61h11.59v74.31h-11.59V492.61z"/>
		<path class="st0" d="M2344.48,554.44l-0.15-19.92l13.82-13.67h43.4l0.15-9.36l-8.03-8.32h-39.83v-10.55h44.74l14.42,14.42v59.9
			h-9.07v-7.73h-2.38l-9.36,7.73h-35.37L2344.48,554.44z M2388.77,556.37l12.78-10.85v-13.97h-38.35l-7.43,7.28l0.15,11.15
			l6.09,6.39H2388.77z"/>
		<path class="st0" d="M2484.19,550.28v-40.87l16.5-16.8h42.36v-29.73h11.44v104.04h-9.22v-8.03h-2.53l-9.36,8.03h-32.7
			L2484.19,550.28z M2530.27,556.22l12.78-10.85v-42.06h-37.16l-10.4,10.26v32.25l10.55,10.4H2530.27z"/>
		<path class="st0" d="M2576.64,550.28v-40.87l16.5-16.8h38.64l16.65,16.65v26.75h-60.49v9.81l10.4,10.4h44.59v10.7h-49.79
			L2576.64,550.28z M2637.13,525.31l-0.15-11.59l-10.4-10.4h-28.24l-10.4,10.4l0.15,11.59H2637.13z"/>
		<path class="st0" d="M2720.81,473.59h-14.27l-0.3-10.7h25.86v104.04h-11.44L2720.81,473.59z"/>
		<path class="st0" d="M2754.7,470.32h13.38v13.38h-13.38V470.32z M2755.59,492.61h11.59v74.31h-11.59V492.61z"/>
		<path class="st0" d="M2788.28,556.37h48.16l6.24-6.39v-9.21l-6.24-6.39h-36.27l-12.63-12.19V505.1l12.49-12.49h50.09l0.3,10.7
			h-45.03l-6.39,6.09v8.17l6.24,6.24h36.41l12.34,12.48l0.15,18.13l-12.34,12.49h-53.21L2788.28,556.37z"/>
		<path class="st0" d="M2873.89,462.89h11.3v35.97h2.53l7.13-6.24h32.7l16.65,16.65l-0.15,41.02l-16.5,16.65h-53.65V462.89z
			 M2922.35,556.22l10.55-10.4l-0.15-32.1l-10.4-10.4h-24.23l-12.93,10.85l0.15,42.06H2922.35z"/>
		<path class="st0" d="M2964.11,550.28v-40.87l16.5-16.8h40.28l16.8,16.65v41.02l-16.8,16.65h-40.28L2964.11,550.28z
			 M3015.83,556.22l10.4-10.4v-32.1l-10.4-10.4h-30.02l-10.4,10.26v32.25l10.55,10.4H3015.83z"/>
		<path class="st0" d="M3055.37,554.44l-0.15-19.92l13.82-13.67h43.4l0.15-9.36l-8.03-8.32h-39.83v-10.55h44.74l14.42,14.42v59.9
			h-9.07v-7.73h-2.38l-9.36,7.73h-35.37L3055.37,554.44z M3099.66,556.37l12.78-10.85v-13.97h-38.35l-7.43,7.28l0.15,11.15
			l6.09,6.39H3099.66z"/>
	</g>
</g>
<rect x="1.21" class="st1" width="3406.14" height="850.39"/>
</svg>
