<?xml version="1.0" encoding="UTF-8"?>
<svg xmlns="http://www.w3.org/2000/svg" xmlns:xlink="http://www.w3.org/1999/xlink"
     width="297mm" height="420mm" viewBox="0 0 297 420"
     font-family="'Inter', 'Segoe UI', Helvetica, Arial, sans-serif">

  <defs>
    <linearGradient id="bgGrad" x1="0" y1="0" x2="0" y2="1">
      <stop offset="0%" stop-color="#FAFCFA"/>
      <stop offset="100%" stop-color="#E8F0E8"/>
    </linearGradient>

    <pattern id="ticketDots" patternUnits="userSpaceOnUse" width="22" height="22">
      <circle cx="11" cy="11" r="0.9" fill="#2E7D40" opacity="0.10"/>
    </pattern>

    <linearGradient id="topAccent" x1="0" y1="0" x2="1" y2="0">
      <stop offset="0%" stop-color="#2E7D40" stop-opacity="0"/>
      <stop offset="50%" stop-color="#2E7D40" stop-opacity="0.18"/>
      <stop offset="100%" stop-color="#2E7D40" stop-opacity="0"/>
    </linearGradient>
  </defs>

  <!-- BACKGROUND -->
  <rect width="297" height="420" fill="url(#bgGrad)"/>
  <rect width="297" height="390" fill="url(#ticketDots)"/>

  <!-- Top decorative arcs evoking a stadium -->
  <path d="M -20 30 Q 148.5 -20 317 30" fill="none" stroke="url(#topAccent)" stroke-width="2"/>
  <path d="M -20 22 Q 148.5 -28 317 22" fill="none" stroke="url(#topAccent)" stroke-width="1.2" opacity="0.6"/>

  <!-- TITLE -->
  <text x="148.5" y="80" font-size="34" font-weight="900"
        fill="#2E7D40" text-anchor="middle" letter-spacing="4">TESSERA</text>

  <!-- LOGO (90mm x 90mm centered) -->
  <g transform="translate(103.5 105) scale(0.3515625)">
    <rect width="256" height="256" rx="56" fill="#2E7D40"/>
    <rect x="40" y="80" width="176" height="96" rx="12" fill="#FFFFFF"/>
    <circle cx="40" cy="128" r="12" fill="#2E7D40"/>
    <circle cx="216" cy="128" r="12" fill="#2E7D40"/>
    <line x1="168" y1="92" x2="168" y2="164" stroke="#2E7D40" stroke-width="2.5"
          stroke-dasharray="4 4" opacity="0.4"/>
    <rect x="76" y="106" width="68" height="16" rx="2" fill="#2E7D40"/>
    <rect x="102" y="106" width="16" height="46" rx="2" fill="#2E7D40"/>
    <rect x="184" y="110" width="20" height="6" rx="1.5" fill="#2E7D40" opacity="0.75"/>
    <rect x="184" y="122" width="14" height="6" rx="1.5" fill="#2E7D40" opacity="0.5"/>
    <rect x="184" y="134" width="18" height="6" rx="1.5" fill="#2E7D40" opacity="0.35"/>
  </g>

  <!-- SUBTITLE -->
  <text x="148.5" y="220" font-size="9" font-weight="600" fill="#2E7D40"
        text-anchor="middle" letter-spacing="2.5">GESTÃO DE BILHETEIRA DIGITAL</text>

  <!-- ============ FLOW STEPS ============ -->
  <g>
    <!-- Card 1: COMPRA -->
    <rect x="20" y="235" width="56" height="58" rx="6" fill="#FFFFFF" stroke="#E0E5E0" stroke-width="0.4"/>
    <circle cx="28" cy="244" r="5" fill="#2E7D40"/>
    <text x="28" y="246.3" font-size="6.5" font-weight="800" fill="#FFFFFF" text-anchor="middle">1</text>
    <g transform="translate(48 265)">
      <!-- Phone body -->
      <rect x="-7" y="-12" width="14" height="24" rx="2" fill="#2E7D40"/>
      <rect x="-5.5" y="-10.5" width="11" height="18" rx="0.5" fill="#FFFFFF"/>
      <circle cx="0" cy="9.5" r="0.8" fill="#FFFFFF"/>
      <!-- Ticket on screen -->
      <rect x="-4" y="-6.5" width="8" height="5" rx="0.5" fill="#2E7D40"/>
      <circle cx="-4" cy="-4" r="0.5" fill="#FFFFFF"/>
      <circle cx="4" cy="-4" r="0.5" fill="#FFFFFF"/>
      <line x1="2" y1="-6.5" x2="2" y2="-1.5" stroke="#FFFFFF" stroke-width="0.15" stroke-dasharray="0.4 0.3"/>
      <text x="0" y="3" font-size="3" font-weight="800" fill="#2E7D40" text-anchor="middle">5€</text>
      <!-- Tap indicator -->
      <circle cx="6" cy="5" r="2" fill="#FF6B35" opacity="0.7"/>
      <circle cx="6" cy="5" r="3" fill="none" stroke="#FF6B35" stroke-width="0.4" opacity="0.4"/>
    </g>
    <text x="48" y="287" font-size="5.5" font-weight="700" fill="#2E7D40" text-anchor="middle" letter-spacing="2">ESCOLHE</text>

    <!-- Arrow 1->2 -->
    <g fill="none" stroke="#2E7D40" stroke-width="1.5" stroke-linecap="round" stroke-linejoin="round">
      <path d="M 78 264 L 85 264"/>
      <path d="M 82 261 L 85 264 L 82 267"/>
    </g>

    <!-- Card 2: PAGAR -->
    <rect x="87" y="235" width="56" height="58" rx="6" fill="#FFFFFF" stroke="#E0E5E0" stroke-width="0.4"/>
    <circle cx="95" cy="244" r="5" fill="#2E7D40"/>
    <text x="95" y="246.3" font-size="6.5" font-weight="800" fill="#FFFFFF" text-anchor="middle">2</text>
    <g transform="translate(115 265)">
      <!-- Credit card body -->
      <rect x="-12" y="-9" width="24" height="18" rx="2" fill="#2E7D40"/>
      <!-- Magnetic stripe -->
      <rect x="-12" y="-6" width="24" height="3" fill="#1F5A2C"/>
      <!-- Chip -->
      <rect x="-9" y="1" width="5" height="4" rx="0.5" fill="#FFD24A"/>
      <line x1="-9" y1="2" x2="-4" y2="2" stroke="#2E7D40" stroke-width="0.2"/>
      <line x1="-9" y1="3" x2="-4" y2="3" stroke="#2E7D40" stroke-width="0.2"/>
      <line x1="-9" y1="4" x2="-4" y2="4" stroke="#2E7D40" stroke-width="0.2"/>
      <!-- € symbol on card -->
      <text x="5.5" y="6" font-size="7" font-weight="800" fill="#FFFFFF" text-anchor="middle">€</text>
    </g>
    <text x="115" y="287" font-size="5.5" font-weight="700" fill="#2E7D40" text-anchor="middle" letter-spacing="2">PAGA</text>

    <!-- Arrow 2->3 -->
    <g fill="none" stroke="#2E7D40" stroke-width="1.5" stroke-linecap="round" stroke-linejoin="round">
      <path d="M 145 264 L 152 264"/>
      <path d="M 149 261 L 152 264 L 149 267"/>
    </g>

    <!-- Card 3: VALIDA -->
    <rect x="154" y="235" width="56" height="58" rx="6" fill="#FFFFFF" stroke="#E0E5E0" stroke-width="0.4"/>
    <circle cx="162" cy="244" r="5" fill="#2E7D40"/>
    <text x="162" y="246.3" font-size="6.5" font-weight="800" fill="#FFFFFF" text-anchor="middle">3</text>
    <g transform="translate(182 265)">
      <!-- QR code background (white) -->
      <rect x="-10" y="-10" width="20" height="20" rx="0.5" fill="#FFFFFF"/>
      <!-- QR finder patterns (3 corners) + data dots, all green -->
      <g fill="#2E7D40">
        <!-- Top-left finder -->
        <rect x="-9.5" y="-9.5" width="5" height="5" rx="0.3"/>
        <rect x="-8" y="-8" width="2" height="2" fill="#FFFFFF"/>
        <rect x="-7.3" y="-7.3" width="0.6" height="0.6"/>
        <!-- Top-right finder -->
        <rect x="4.5" y="-9.5" width="5" height="5" rx="0.3"/>
        <rect x="6" y="-8" width="2" height="2" fill="#FFFFFF"/>
        <rect x="6.7" y="-7.3" width="0.6" height="0.6"/>
        <!-- Bottom-left finder -->
        <rect x="-9.5" y="4.5" width="5" height="5" rx="0.3"/>
        <rect x="-8" y="6" width="2" height="2" fill="#FFFFFF"/>
        <rect x="-7.3" y="6.7" width="0.6" height="0.6"/>
        <!-- Data dots scattered -->
        <rect x="-3" y="-9" width="1" height="1"/>
        <rect x="-1" y="-9" width="1" height="1"/>
        <rect x="1" y="-9" width="1" height="1"/>
        <rect x="3" y="-9" width="1" height="1"/>
        <rect x="-3" y="-7" width="1" height="1"/>
        <rect x="0" y="-7" width="1" height="1"/>
        <rect x="2" y="-7" width="1" height="1"/>
        <rect x="-3" y="-5" width="1" height="1"/>
        <rect x="3" y="-5" width="1" height="1"/>
        <rect x="-9" y="-3" width="1" height="1"/>
        <rect x="-7" y="-3" width="1" height="1"/>
        <rect x="-5" y="-3" width="1" height="1"/>
        <rect x="-3" y="-3" width="1" height="1"/>
        <rect x="-1" y="-3" width="1" height="1"/>
        <rect x="1" y="-3" width="1" height="1"/>
        <rect x="4" y="-3" width="1" height="1"/>
        <rect x="6" y="-3" width="1" height="1"/>
        <rect x="8" y="-3" width="1" height="1"/>
        <rect x="-9" y="-1" width="1" height="1"/>
        <rect x="-6" y="-1" width="1" height="1"/>
        <rect x="-4" y="-1" width="1" height="1"/>
        <rect x="-2" y="-1" width="1" height="1"/>
        <rect x="0" y="-1" width="1" height="1"/>
        <rect x="3" y="-1" width="1" height="1"/>
        <rect x="5" y="-1" width="1" height="1"/>
        <rect x="7" y="-1" width="1" height="1"/>
        <rect x="-8" y="1" width="1" height="1"/>
        <rect x="-6" y="1" width="1" height="1"/>
        <rect x="-3" y="1" width="1" height="1"/>
        <rect x="0" y="1" width="1" height="1"/>
        <rect x="2" y="1" width="1" height="1"/>
        <rect x="5" y="1" width="1" height="1"/>
        <rect x="7" y="1" width="1" height="1"/>
        <rect x="-3" y="3" width="1" height="1"/>
        <rect x="-1" y="3" width="1" height="1"/>
        <rect x="1" y="3" width="1" height="1"/>
        <rect x="3" y="3" width="1" height="1"/>
        <rect x="5" y="3" width="1" height="1"/>
        <rect x="7" y="3" width="1" height="1"/>
        <rect x="-3" y="5" width="1" height="1"/>
        <rect x="0" y="5" width="1" height="1"/>
        <rect x="2" y="5" width="1" height="1"/>
        <rect x="5" y="5" width="1" height="1"/>
        <rect x="8" y="5" width="1" height="1"/>
        <rect x="-3" y="7" width="1" height="1"/>
        <rect x="-1" y="7" width="1" height="1"/>
        <rect x="3" y="7" width="1" height="1"/>
        <rect x="6" y="7" width="1" height="1"/>
        <rect x="-3" y="9" width="1" height="1"/>
        <rect x="0" y="9" width="1" height="1"/>
        <rect x="3" y="9" width="1" height="1"/>
        <rect x="5" y="9" width="1" height="1"/>
        <rect x="7" y="9" width="1" height="1"/>
      </g>
      <!-- Red scanning beam with glow -->
      <line x1="-11" y1="0" x2="11" y2="0" stroke="#FF3B30" stroke-width="2.5" opacity="0.25" stroke-linecap="round"/>
      <line x1="-11" y1="0" x2="11" y2="0" stroke="#FF3B30" stroke-width="0.9" opacity="0.95" stroke-linecap="round"/>
    </g>
    <text x="182" y="287" font-size="5.5" font-weight="700" fill="#2E7D40" text-anchor="middle" letter-spacing="2">VALIDA</text>

    <!-- Arrow 3->4 -->
    <g fill="none" stroke="#2E7D40" stroke-width="1.5" stroke-linecap="round" stroke-linejoin="round">
      <path d="M 212 264 L 219 264"/>
      <path d="M 216 261 L 219 264 L 216 267"/>
    </g>

    <!-- Card 4: DISFRUTA -->
    <rect x="221" y="235" width="56" height="58" rx="6" fill="#FFFFFF" stroke="#E0E5E0" stroke-width="0.4"/>
    <circle cx="229" cy="244" r="5" fill="#2E7D40"/>
    <text x="229" y="246.3" font-size="6.5" font-weight="800" fill="#FFFFFF" text-anchor="middle">4</text>
    <g transform="translate(249 266)">
      <!-- Person cheering (V arms up) -->
      <g fill="#2E7D40">
        <!-- Head -->
        <circle cx="0" cy="-5" r="2.5"/>
        <!-- Body torso -->
        <path d="M -3 -1 Q -3 -2 -2 -2 L 2 -2 Q 3 -2 3 -1 L 3 8 L -3 8 Z"/>
        <!-- Arms raised in V -->
        <path d="M -2.5 -1 L -7.5 -9" stroke="#2E7D40" stroke-width="2.2" stroke-linecap="round" fill="none"/>
        <path d="M 2.5 -1 L 7.5 -9" stroke="#2E7D40" stroke-width="2.2" stroke-linecap="round" fill="none"/>
        <!-- Hands (fists) -->
        <circle cx="-7.5" cy="-9" r="1.4"/>
        <circle cx="7.5" cy="-9" r="1.4"/>
      </g>
      <!-- Cheer sparkles (orange) -->
      <g stroke="#FF6B35" stroke-width="0.8" stroke-linecap="round" fill="none">
        <line x1="-9.5" y1="-11" x2="-11" y2="-13"/>
        <line x1="9.5" y1="-11" x2="11" y2="-13"/>
        <line x1="0" y1="-11.5" x2="0" y2="-13.5"/>
        <line x1="-4" y1="-12" x2="-5" y2="-14"/>
        <line x1="4" y1="-12" x2="5" y2="-14"/>
      </g>
    </g>
    <text x="249" y="287" font-size="5.5" font-weight="700" fill="#2E7D40" text-anchor="middle" letter-spacing="1">DISFRUTA</text>
  </g>

  <!-- TECH ICONS ROW (centers at y=320; 10 icons, x centers: 32.85, 58.55, ..., 264.15) -->

  <!-- Each tile: white rounded square 22x22, icon 14x14 centered -->

  <g>
    <!-- Kotlin -->
    <rect x="20.85" y="308" width="24" height="24" rx="4" fill="#FFFFFF" stroke="#E5E5E5" stroke-width="0.3"/>
    <g fill="#7F52FF" transform="translate(25.85 313) scale(0.58333)"><path d="M24 24H0V0h24L12 12Z"/></g>

    <!-- Spring -->
    <rect x="46.55" y="308" width="24" height="24" rx="4" fill="#FFFFFF" stroke="#E5E5E5" stroke-width="0.3"/>
    <g fill="#6DB33F" transform="translate(51.55 313) scale(0.58333)"><path d="M21.8537 1.4158a10.4504 10.4504 0 0 1-1.284 2.2471A11.9666 11.9666 0 1 0 3.8518 20.7757l.4445.3951a11.9543 11.9543 0 0 0 19.6316-8.2971c.3457-3.0126-.568-6.8649-2.0743-11.458zM5.5805 20.8745a1.0174 1.0174 0 1 1-.1482-1.4323 1.0396 1.0396 0 0 1 .1482 1.4323zm16.1991-3.5806c-2.9385 3.9263-9.2601 2.5928-13.2852 2.7904 0 0-.7161.0494-1.4323.1481 0 0 .2717-.1234.6174-.2469 2.8398-.9877 4.1732-1.1853 5.9018-2.0743 3.2349-1.6545 6.4698-5.2844 7.1118-9.0379-1.2347 3.6053-4.9881 6.7167-8.3959 7.9761-2.3459.8643-6.5685 1.7039-6.5685 1.7039l-.1729-.0988c-2.8645-1.4076-2.9632-7.6304 2.2718-9.6306 2.2966-.889 4.4696-.395 6.9637-.9877 2.6422-.6174 5.7043-2.5929 6.939-5.1857 1.3828 4.1732 3.062 10.643.0493 14.6434z"/></g>

    <!-- React -->
    <rect x="72.25" y="308" width="24" height="24" rx="4" fill="#FFFFFF" stroke="#E5E5E5" stroke-width="0.3"/>
    <g fill="#61DAFB" transform="translate(77.25 313) scale(0.58333)"><path d="M14.23 12.004a2.236 2.236 0 0 1-2.235 2.236 2.236 2.236 0 0 1-2.236-2.236 2.236 2.236 0 0 1 2.235-2.236 2.236 2.236 0 0 1 2.236 2.236zm2.648-10.69c-1.346 0-3.107.96-4.888 2.622-1.78-1.653-3.542-2.602-4.887-2.602-.41 0-.783.093-1.106.278-1.375.793-1.683 3.264-.973 6.365C1.98 8.917 0 10.42 0 12.004c0 1.59 1.99 3.097 5.043 4.03-.704 3.113-.39 5.588.988 6.38.32.187.69.275 1.102.275 1.345 0 3.107-.96 4.888-2.624 1.78 1.654 3.542 2.603 4.887 2.603.41 0 .783-.09 1.106-.275 1.374-.792 1.683-3.263.973-6.365C22.02 15.096 24 13.59 24 12.004c0-1.59-1.99-3.097-5.043-4.032.704-3.11.39-5.587-.988-6.38-.318-.184-.688-.277-1.092-.278zm-.005 1.09v.006c.225 0 .406.044.558.127.666.382.955 1.835.73 3.704-.054.46-.142.945-.25 1.44-.96-.236-2.006-.417-3.107-.534-.66-.905-1.345-1.727-2.035-2.447 1.592-1.48 3.087-2.292 4.105-2.295zm-9.77.02c1.012 0 2.514.808 4.11 2.28-.686.72-1.37 1.537-2.02 2.442-1.107.117-2.154.298-3.113.538-.112-.49-.195-.964-.254-1.42-.23-1.868.054-3.32.714-3.707.19-.09.4-.127.563-.132zm4.882 3.05c.455.468.91.992 1.36 1.564-.44-.02-.89-.034-1.345-.034-.46 0-.915.01-1.36.034.44-.572.895-1.096 1.345-1.565zM12 8.1c.74 0 1.477.034 2.202.093.406.582.802 1.203 1.183 1.86.372.64.71 1.29 1.018 1.946-.308.655-.646 1.31-1.013 1.95-.38.66-.773 1.288-1.18 1.87-.728.063-1.466.098-2.21.098-.74 0-1.477-.035-2.202-.093-.406-.582-.802-1.204-1.183-1.86-.372-.64-.71-1.29-1.018-1.946.303-.657.646-1.313 1.013-1.954.38-.66.773-1.286 1.18-1.868.728-.064 1.466-.098 2.21-.098zm-3.635.254c-.24.377-.48.763-.704 1.16-.225.39-.435.782-.635 1.174-.265-.656-.49-1.31-.676-1.947.64-.15 1.315-.283 2.015-.386zm7.26 0c.695.103 1.365.23 2.006.387-.18.632-.405 1.282-.66 1.933-.2-.39-.41-.783-.64-1.174-.225-.392-.465-.774-.705-1.146zm3.063.675c.484.15.944.317 1.375.498 1.732.74 2.852 1.708 2.852 2.476-.005.768-1.125 1.74-2.857 2.475-.42.18-.88.342-1.355.493-.28-.958-.646-1.956-1.1-2.98.45-1.017.81-2.01 1.085-2.964zm-13.395.004c.278.96.645 1.957 1.1 2.98-.45 1.017-.812 2.01-1.086 2.964-.484-.15-.944-.318-1.37-.5-1.732-.737-2.852-1.706-2.852-2.474 0-.768 1.12-1.742 2.852-2.476.42-.18.88-.342 1.356-.494zm11.678 4.28c.265.657.49 1.312.676 1.948-.64.157-1.316.29-2.016.39.24-.375.48-.762.705-1.158.225-.39.435-.788.636-1.18zm-9.945.02c.2.392.41.783.64 1.175.23.39.465.772.705 1.143-.695-.102-1.365-.23-2.006-.386.18-.63.406-1.282.66-1.933zM17.92 16.32c.112.493.2.968.254 1.423.23 1.868-.054 3.32-.714 3.708-.147.09-.338.128-.563.128-1.012 0-2.514-.807-4.11-2.28.686-.72 1.37-1.536 2.02-2.44 1.107-.118 2.154-.3 3.113-.54zm-11.83.01c.96.234 2.006.415 3.107.532.66.905 1.345 1.727 2.035 2.446-1.595 1.483-3.092 2.295-4.11 2.295-.22-.005-.406-.05-.553-.132-.666-.38-.955-1.834-.73-3.703.054-.46.142-.944.25-1.438zm4.56.64c.44.02.89.034 1.345.034.46 0 .915-.01 1.36-.034-.44.572-.895 1.095-1.345 1.565-.455-.47-.91-.993-1.36-1.565z"/></g>

    <!-- TypeScript -->
    <rect x="97.95" y="308" width="24" height="24" rx="4" fill="#FFFFFF" stroke="#E5E5E5" stroke-width="0.3"/>
    <g fill="#3178C6" transform="translate(102.95 313) scale(0.58333)"><path d="M1.125 0C.502 0 0 .502 0 1.125v21.75C0 23.498.502 24 1.125 24h21.75c.623 0 1.125-.502 1.125-1.125V1.125C24 .502 23.498 0 22.875 0zm17.363 9.75c.612 0 1.154.037 1.627.111a6.38 6.38 0 0 1 1.306.34v2.458a3.95 3.95 0 0 0-.643-.361 5.093 5.093 0 0 0-.717-.26 5.453 5.453 0 0 0-1.426-.2c-.3 0-.573.028-.819.086a2.1 2.1 0 0 0-.623.242c-.17.104-.3.229-.393.374a.888.888 0 0 0-.14.49c0 .196.053.373.156.529.104.156.252.304.443.444s.423.276.696.41c.273.135.582.274.926.416.47.197.892.407 1.266.628.374.222.695.473.963.753.268.279.472.598.614.957.142.359.214.776.214 1.253 0 .657-.125 1.21-.373 1.656a3.033 3.033 0 0 1-1.012 1.085 4.38 4.38 0 0 1-1.487.596c-.566.12-1.163.18-1.79.18a9.916 9.916 0 0 1-1.84-.164 5.544 5.544 0 0 1-1.512-.493v-2.63a5.033 5.033 0 0 0 3.237 1.2c.333 0 .624-.03.872-.09.249-.06.456-.144.623-.25.166-.108.29-.234.373-.38a1.023 1.023 0 0 0-.074-1.089 2.12 2.12 0 0 0-.537-.5 5.597 5.597 0 0 0-.807-.444 27.72 27.72 0 0 0-1.007-.436c-.918-.383-1.602-.852-2.053-1.405-.45-.553-.676-1.222-.676-2.005 0-.614.123-1.141.369-1.582.246-.441.58-.804 1.004-1.089a4.494 4.494 0 0 1 1.47-.629 7.536 7.536 0 0 1 1.77-.201zm-15.113.188h9.563v2.166H9.506v9.646H6.789v-9.646H3.375z"/></g>

    <!-- Android -->
    <rect x="123.65" y="308" width="24" height="24" rx="4" fill="#FFFFFF" stroke="#E5E5E5" stroke-width="0.3"/>
    <g fill="#3DDC84" transform="translate(128.65 313) scale(0.58333)"><path d="M18.4395 5.5586c-.675 1.1664-1.352 2.3318-2.0274 3.498-.0366-.0155-.0742-.0286-.1113-.043-1.8249-.6957-3.484-.8-4.42-.787-1.8551.0185-3.3544.4643-4.2597.8203-.084-.1494-1.7526-3.021-2.0215-3.4864a1.1451 1.1451 0 0 0-.1406-.1914c-.3312-.364-.9054-.4859-1.379-.203-.475.282-.7136.9361-.3886 1.5019 1.9466 3.3696-.0966-.2158 1.9473 3.3593.0172.031-.4946.2642-1.3926 1.0177C2.8987 12.176.452 14.772 0 18.9902h24c-.119-1.1108-.3686-2.099-.7461-3.0683-.7438-1.9118-1.8435-3.2928-2.7402-4.1836a12.1048 12.1048 0 0 0-2.1309-1.6875c.6594-1.122 1.312-2.2559 1.9649-3.3848.2077-.3615.1886-.7956-.0079-1.1191a1.1001 1.1001 0 0 0-.8515-.5332c-.5225-.0536-.9392.3128-1.0488.5449zm-.0391 8.461c.3944.5926.324 1.3306-.1563 1.6503-.4799.3197-1.188.0985-1.582-.4941-.3944-.5927-.324-1.3307.1563-1.6504.4727-.315 1.1812-.1086 1.582.4941zM7.207 13.5273c.4803.3197.5506 1.0577.1563 1.6504-.394.5926-1.1038.8138-1.584.4941-.48-.3197-.5503-1.0577-.1563-1.6504.4008-.6021 1.1087-.8106 1.584-.4941z"/></g>

    <!-- Docker -->
    <rect x="149.35" y="308" width="24" height="24" rx="4" fill="#FFFFFF" stroke="#E5E5E5" stroke-width="0.3"/>
    <g fill="#2496ED" transform="translate(154.35 313) scale(0.58333)"><path d="M13.983 11.078h2.119a.186.186 0 00.186-.185V9.006a.186.186 0 00-.186-.186h-2.119a.185.185 0 00-.185.185v1.888c0 .102.083.185.185.185m-2.954-5.43h2.118a.186.186 0 00.186-.186V3.574a.186.186 0 00-.186-.185h-2.118a.185.185 0 00-.185.185v1.888c0 .102.082.185.185.185m0 2.716h2.118a.187.187 0 00.186-.186V6.29a.186.186 0 00-.186-.185h-2.118a.185.185 0 00-.185.185v1.887c0 .102.082.185.185.186m-2.93 0h2.12a.186.186 0 00.184-.186V6.29a.185.185 0 00-.185-.185H8.1a.185.185 0 00-.185.185v1.887c0 .102.083.185.185.186m-2.964 0h2.119a.186.186 0 00.185-.186V6.29a.185.185 0 00-.185-.185H5.136a.186.186 0 00-.186.185v1.887c0 .102.084.185.186.186m5.893 2.715h2.118a.186.186 0 00.186-.185V9.006a.186.186 0 00-.186-.186h-2.118a.185.185 0 00-.185.185v1.888c0 .102.082.185.185.185m-2.93 0h2.12a.185.185 0 00.184-.185V9.006a.185.185 0 00-.184-.186h-2.12a.185.185 0 00-.184.185v1.888c0 .102.083.185.185.185m-2.964 0h2.119a.185.185 0 00.185-.185V9.006a.185.185 0 00-.184-.186h-2.12a.186.186 0 00-.186.186v1.887c0 .102.084.185.186.185m-2.92 0h2.12a.185.185 0 00.184-.185V9.006a.185.185 0 00-.184-.186h-2.12a.185.185 0 00-.184.185v1.888c0 .102.082.185.185.185M23.763 9.89c-.065-.051-.672-.51-1.954-.51-.338.001-.676.03-1.01.087-.248-1.7-1.653-2.53-1.716-2.566l-.344-.199-.226.327c-.284.438-.49.922-.612 1.43-.23.97-.09 1.882.403 2.661-.595.332-1.55.413-1.744.42H.751a.751.751 0 00-.75.748 11.376 11.376 0 00.692 4.062c.545 1.428 1.355 2.48 2.41 3.124 1.18.723 3.1 1.137 5.275 1.137.983.003 1.963-.086 2.93-.266a12.248 12.248 0 003.823-1.389c.98-.567 1.86-1.288 2.61-2.136 1.252-1.418 1.998-2.997 2.553-4.4h.221c1.372 0 2.215-.549 2.68-1.009.309-.293.55-.65.707-1.046l.098-.288Z"/></g>

    <!-- PostgreSQL -->
    <rect x="175.05" y="308" width="24" height="24" rx="4" fill="#FFFFFF" stroke="#E5E5E5" stroke-width="0.3"/>
    <g fill="#4169E1" transform="translate(180.05 313) scale(0.58333)"><path d="M23.5594 14.7228a.5269.5269 0 0 0-.0563-.1191c-.139-.2632-.4768-.3418-1.0074-.2321-1.6533.3411-2.2935.1312-2.5256-.0191 1.342-2.0482 2.445-4.522 3.0411-6.8297.2714-1.0507.7982-3.5237.1222-4.7316a1.5641 1.5641 0 0 0-.1509-.235C21.6931.9086 19.8007.0248 17.5099.0005c-1.4947-.0158-2.7705.3461-3.1161.4794a9.449 9.449 0 0 0-.5159-.0816 8.044 8.044 0 0 0-1.3114-.1278c-1.1822-.0184-2.2038.2642-3.0498.8406-.8573-.3211-4.7888-1.645-7.2219.0788C.9359 2.1526.3086 3.8733.4302 6.3043c.0409.818.5069 3.334 1.2423 5.7436.4598 1.5065.9387 2.7019 1.4334 3.582.553.9942 1.1259 1.5933 1.7143 1.7895.4474.1491 1.1327.1441 1.8581-.7279.8012-.9635 1.5903-1.8258 1.9446-2.2069.4351.2355.9064.3625 1.39.3772a.0569.0569 0 0 0 .0004.0041 11.0312 11.0312 0 0 0-.2472.3054c-.3389.4302-.4094.5197-1.5002.7443-.3102.064-1.1344.2339-1.1464.8115-.0025.1224.0329.2309.0919.3268.2269.4231.9216.6097 1.015.6331 1.3345.3335 2.5044.092 3.3714-.6787-.017 2.231.0775 4.4174.3454 5.0874.2212.5529.7618 1.9045 2.4692 1.9043.2505 0 .5263-.0291.8296-.0941 1.7819-.3821 2.5557-1.1696 2.855-2.9059.1503-.8707.4016-2.8753.5388-4.1012.0169-.0703.0357-.1207.057-.1362.0007-.0005.0697-.0471.4272.0307a.3673.3673 0 0 0 .0443.0068l.2539.0223.0149.001c.8468.0384 1.9114-.1426 2.5312-.4308.6438-.2988 1.8057-1.0323 1.5951-1.6698zM2.371 11.8765c-.7435-2.4358-1.1779-4.8851-1.2123-5.5719-.1086-2.1714.4171-3.6829 1.5623-4.4927 1.8367-1.2986 4.8398-.5408 6.108-.13-.0032.0032-.0066.0061-.0098.0094-2.0238 2.044-1.9758 5.536-1.9708 5.7495-.0002.0823.0066.1989.0162.3593.0348.5873.0996 1.6804-.0735 2.9184-.1609 1.1504.1937 2.2764.9728 3.0892.0806.0841.1648.1631.2518.2374-.3468.3714-1.1004 1.1926-1.9025 2.1576-.5677.6825-.9597.5517-1.0886.5087-.3919-.1307-.813-.5871-1.2381-1.3223-.4796-.839-.9635-2.0317-1.4155-3.5126zm6.0072 5.0871c-.1711-.0428-.3271-.1132-.4322-.1772.0889-.0394.2374-.0902.4833-.1409 1.2833-.2641 1.4815-.4506 1.9143-1.0002.0992-.126.2116-.2687.3673-.4426a.3549.3549 0 0 0 .0737-.1298c.1708-.1513.2724-.1099.4369-.0417.156.0646.3078.26.3695.4752.0291.1016.0619.2945-.0452.4444-.9043 1.2658-2.2216 1.2494-3.1676 1.0128zm2.094-3.988-.0525.141c-.133.3566-.2567.6881-.3334 1.003-.6674-.0021-1.3168-.2872-1.8105-.8024-.6279-.6551-.9131-1.5664-.7825-2.5004.1828-1.3079.1153-2.4468.079-3.0586-.005-.0857-.0095-.1607-.0122-.2199.2957-.2621 1.6659-.9962 2.6429-.7724.4459.1022.7176.4057.8305.928.5846 2.7038.0774 3.8307-.3302 4.7363-.084.1866-.1633.3629-.2311.5454zm7.3637 4.5725c-.0169.1768-.0358.376-.0618.5959l-.146.4383a.3547.3547 0 0 0-.0182.1077c-.0059.4747-.054.6489-.115.8693-.0634.2292-.1353.4891-.1794 1.0575-.11 1.4143-.8782 2.2267-2.4172 2.5565-1.5155.3251-1.7843-.4968-2.0212-1.2217a6.5824 6.5824 0 0 0-.0769-.2266c-.2154-.5858-.1911-1.4119-.1574-2.5551.0165-.5612-.0249-1.9013-.3302-2.6462.0044-.2932.0106-.5909.019-.8918a.3529.3529 0 0 0-.0153-.1126 1.4927 1.4927 0 0 0-.0439-.208c-.1226-.4283-.4213-.7866-.7797-.9351-.1424-.059-.4038-.1672-.7178-.0869.067-.276.1831-.5875.309-.9249l.0529-.142c.0595-.16.134-.3257.213-.5012.4265-.9476 1.0106-2.2453.3766-5.1772-.2374-1.0981-1.0304-1.6343-2.2324-1.5098-.7207.0746-1.3799.3654-1.7088.5321a5.6716 5.6716 0 0 0-.1958.1041c.0918-1.1064.4386-3.1741 1.7357-4.4823a4.0306 4.0306 0 0 1 .3033-.276.3532.3532 0 0 0 .1447-.0644c.7524-.5706 1.6945-.8506 2.802-.8325.4091.0067.8017.0339 1.1742.081 1.939.3544 3.2439 1.4468 4.0359 2.3827.8143.9623 1.2552 1.9315 1.4312 2.4543-1.3232-.1346-2.2234.1268-2.6797.779-.9926 1.4189.543 4.1729 1.2811 5.4964.1353.2426.2522.4522.2889.5413.2403.5825.5515.9713.7787 1.2552.0696.087.1372.1714.1885.245-.4008.1155-1.1208.3825-1.0552 1.717-.0123.1563-.0423.4469-.0834.8148-.0461.2077-.0702.4603-.0994.7662zm.8905-1.6211c-.0405-.8316.2691-.9185.5967-1.0105a2.8566 2.8566 0 0 0 .135-.0406 1.202 1.202 0 0 0 .1342.103c.5703.3765 1.5823.4213 3.0068.1344-.2016.1769-.5189.3994-.9533.6011-.4098.1903-1.0957.333-1.7473.3636-.7197.0336-1.0859-.0807-1.1721-.151zm.5695-9.2712c-.0059.3508-.0542.6692-.1054 1.0017-.055.3576-.112.7274-.1264 1.1762-.0142.4368.0404.8909.0932 1.3301.1066.887.216 1.8003-.2075 2.7014a3.5272 3.5272 0 0 1-.1876-.3856c-.0527-.1276-.1669-.3326-.3251-.6162-.6156-1.1041-2.0574-3.6896-1.3193-4.7446.3795-.5427 1.3408-.5661 2.1781-.463zm.2284 7.0137a12.3762 12.3762 0 0 0-.0853-.1074l-.0355-.0444c.7262-1.1995.5842-2.3862.4578-3.4385-.0519-.4318-.1009-.8396-.0885-1.2226.0129-.4061.0666-.7543.1185-1.0911.0639-.415.1288-.8443.1109-1.3505.0134-.0531.0188-.1158.0118-.1902-.0457-.4855-.5999-1.938-1.7294-3.253-.6076-.7073-1.4896-1.4972-2.6889-2.0395.5251-.1066 1.2328-.2035 2.0244-.1859 2.0515.0456 3.6746.8135 4.8242 2.2824a.908.908 0 0 1 .0667.1002c.7231 1.3556-.2762 6.2751-2.9867 10.5405zm-8.8166-6.1162c-.025.1794-.3089.4225-.6211.4225a.5821.5821 0 0 1-.0809-.0056c-.1873-.026-.3765-.144-.5059-.3156-.0458-.0605-.1203-.178-.1055-.2844.0055-.0401.0261-.0985.0925-.1488.1182-.0894.3518-.1226.6096-.0867.3163.0441.6426.1938.6113.4186zm7.9305-.4114c.0111.0792-.049.201-.1531.3102-.0683.0717-.212.1961-.4079.2232a.5456.5456 0 0 1-.075.0052c-.2935 0-.5414-.2344-.5607-.3717-.024-.1765.2641-.3106.5611-.352.297-.0414.6111.0088.6356.1851z"/></g>

    <!-- RabbitMQ -->
    <rect x="200.75" y="308" width="24" height="24" rx="4" fill="#FFFFFF" stroke="#E5E5E5" stroke-width="0.3"/>
    <g fill="#FF6600" transform="translate(205.75 313) scale(0.58333)"><path d="M23.035 9.601h-7.677a.956.956 0 01-.962-.962V.962a.956.956 0 00-.962-.956H10.56a.956.956 0 00-.962.956V8.64a.956.956 0 01-.962.962H5.762a.956.956 0 01-.961-.962V.962A.956.956 0 003.839 0H.959a.956.956 0 00-.956.962v22.076A.956.956 0 00.965 24h22.07a.956.956 0 00.962-.962V10.58a.956.956 0 00-.962-.98zm-3.86 8.152a1.437 1.437 0 01-1.437 1.443h-1.924a1.437 1.437 0 01-1.436-1.443v-1.917a1.437 1.437 0 011.436-1.443h1.924a1.437 1.437 0 011.437 1.443z"/></g>

    <!-- Keycloak -->
    <rect x="226.45" y="308" width="24" height="24" rx="4" fill="#FFFFFF" stroke="#E5E5E5" stroke-width="0.3"/>
    <g fill="#4D4D4D" transform="translate(231.45 313) scale(0.58333)"><path d="m18.742 1.182-12.493.002C4.155 4.784 2.079 8.393 0 12.002c2.071 3.612 4.162 7.214 6.252 10.816l12.49-.004 3.089-5.404h2.158v-.002H24L23.996 6.59h-2.168zM8.327 4.792h2.081l1.04 1.8-3.12 5.413 3.117 5.403-1.035 1.81H8.327a2047.566 2047.566 0 0 0-4.168-7.204C5.547 9.606 6.937 7.2 8.327 4.792Zm6.241 0 2.086.003c1.393 2.405 2.78 4.813 4.166 7.222l-4.167 7.2h-2.08c-.382-.562-1.038-1.808-1.038-1.808l3.123-5.405-3.124-5.413z"/></g>

    <!-- NGINX -->
    <rect x="252.15" y="308" width="24" height="24" rx="4" fill="#FFFFFF" stroke="#E5E5E5" stroke-width="0.3"/>
    <g fill="#009639" transform="translate(257.15 313) scale(0.58333)"><path d="M12 0L1.605 6v12L12 24l10.395-6V6L12 0zm6 16.59c0 .705-.646 1.29-1.529 1.29-.631 0-1.351-.255-1.801-.81l-6-7.141v6.66c0 .721-.57 1.29-1.274 1.29H7.32c-.721 0-1.29-.6-1.29-1.29V7.41c0-.705.63-1.29 1.5-1.29.646 0 1.38.255 1.83.81l5.97 7.141V7.41c0-.721.6-1.29 1.29-1.29h.075c.72 0 1.29.6 1.29 1.29v9.18H18z"/></g>
  </g>

  <!-- ICON LABELS -->
  <g font-size="3" fill="#555" text-anchor="middle" font-weight="500">
    <text x="32.85"  y="340">Kotlin</text>
    <text x="58.55"  y="340">Spring</text>
    <text x="84.25"  y="340">React</text>
    <text x="109.95" y="340">TypeScript</text>
    <text x="135.65" y="340">Android</text>
    <text x="161.35" y="340">Docker</text>
    <text x="187.05" y="340">Postgres</text>
    <text x="212.75" y="340">RabbitMQ</text>
    <text x="238.45" y="340">Keycloak</text>
    <text x="264.15" y="340">NGINX</text>
  </g>

  <!-- BOTTOM STRIP -->
  <rect x="0" y="390" width="297" height="30" fill="#0F0F0F"/>

  <!-- ISEL logo (white version, embedded inline) -->
  <svg x="18" y="397" width="60" height="16" viewBox="0 0 3407.35 850.39" preserveAspectRatio="xMinYMid meet"><style type="text/css">
	.st0{fill:#FFFFFF;}
	.st1{fill:none;}
</style>
<g>
	<g>
		<path class="st0" d="M871.85,404.95H649.13V347.1l23.14-23.14H851.6v-40.5H698.01c-2.68,0-5.31,0.53-7.75,1.54
			s-4.67,2.49-6.57,4.39l-69.13,69.13c-1.9,1.9-3.38,4.14-4.39,6.57c-1.01,2.43-1.54,5.06-1.54,7.75v52.36
			c0,5.59,2.27,10.65,5.93,14.32c3.66,3.66,8.73,5.93,14.32,5.93H851.6v57.85l-23.14,23.14H608.63v40.49h194.09
			c2.68,0,5.31-0.53,7.75-1.54c2.43-1.01,4.67-2.49,6.57-4.39l69.13-69.13c1.9-1.9,3.38-4.14,4.39-6.57
			c1.01-2.43,1.54-5.06,1.54-7.75V425.2c0-5.59-2.27-10.65-5.93-14.32S877.44,404.95,871.85,404.95z"/>
		<path class="st0" d="M487.15,526.43V372.84c0-2.68-0.53-5.31-1.54-7.75s-2.49-4.67-4.39-6.57l-69.13-69.13
			c-1.9-1.9-4.14-3.38-6.57-4.39s-5.06-1.54-7.75-1.54h-113.1v40.5h138.84l23.14,23.14v179.33H284.67v40.49h283.46v-40.49
			L487.15,526.43z"/>
		<path class="st0" d="M1320.18,526.43l-23.14-23.14V283.46h-40.49v194.09c0,2.68,0.53,5.31,1.54,7.75
			c1.01,2.43,2.49,4.67,4.39,6.57l69.13,69.13c1.9,1.9,4.14,3.38,6.57,4.39c2.43,1.01,5.06,1.54,7.75,1.54h194.09v-40.49H1320.18z"
			/>
		<path class="st0" d="M1149.35,378.74l-28.63-28.63L973.09,497.74V283.46h-40.49v194.09c0,2.68,0.53,5.31,1.54,7.75
			s2.49,4.67,4.39,6.57l69.13,69.13c1.9,1.9,4.14,3.38,6.57,4.39c2.43,1.01,5.06,1.54,7.75,1.54h194.09v-40.49h-214.4
			L1149.35,378.74z"/>
	</g>
	<g>
		<path class="st0" d="M1620.96,283.42h13.38v13.38h-13.38V283.42z M1621.86,305.71h11.59v74.31h-11.59V305.71z"/>
		<path class="st0" d="M1656.04,305.71h9.21v6.69h2.53l7.73-6.69h34.18l15.31,15.31v59.01h-11.44l0.15-54.4l-9.07-9.22h-25.86
			l-11.3,9.51l0.15,54.1h-11.59V305.71z"/>
		<path class="st0" d="M1745.51,369.48h48.16l6.24-6.39v-9.21l-6.24-6.39h-36.27l-12.63-12.19V318.2l12.49-12.49h50.09l0.3,10.7
			h-45.03l-6.39,6.09v8.17l6.24,6.24h36.41l12.34,12.48l0.15,18.13l-12.34,12.49h-53.21L1745.51,369.48z"/>
		<path class="st0" d="M1836.33,371.11v-54.84h-14.86l-0.15-10.55h14.86v-19.32h11.59v19.32h27.5l-0.15,10.55h-27.5v50.24l2.82,2.82
			h25.42v10.7h-30.62L1836.33,371.11z"/>
		<path class="st0" d="M1890.28,283.42h13.38v13.38h-13.38V283.42z M1891.17,305.71h11.59v74.31h-11.59V305.71z"/>
		<path class="st0" d="M1931.45,371.11v-54.84h-14.86l-0.15-10.55h14.86v-19.32h11.59v19.32h27.5l-0.15,10.55h-27.5v50.24l2.82,2.82
			h25.42v10.7h-30.62L1931.45,371.11z"/>
		<path class="st0" d="M1985.69,364.57v-58.86h11.3v54.55l9.21,9.07h23.34l11-9.51v-54.1h11.59v74.31h-9.21l-0.15-6.69h-2.23
			l-7.88,6.69H2001L1985.69,364.57z"/>
		<path class="st0" d="M2080.81,371.11v-54.84h-14.86l-0.15-10.55h14.86v-19.32h11.59v19.32h27.5l-0.15,10.55h-27.5v50.24l2.82,2.82
			h25.42v10.7h-30.62L2080.81,371.11z"/>
		<path class="st0" d="M2134.32,363.38v-40.87l16.5-16.8h40.28l16.8,16.65v41.02l-16.8,16.65h-40.28L2134.32,363.38z
			 M2186.04,369.33l10.4-10.4v-32.1l-10.4-10.4h-30.02l-10.4,10.26v32.25l10.55,10.4H2186.04z"/>
		<path class="st0" d="M2278.19,369.48h48.16l6.24-6.39v-9.21l-6.24-6.39h-36.27l-12.63-12.19V318.2l12.49-12.49h50.09l0.3,10.7
			h-45.03l-6.39,6.09v8.17l6.24,6.24h36.41l12.34,12.48l0.15,18.13l-12.34,12.49h-53.21L2278.19,369.48z"/>
		<path class="st0" d="M2362.31,364.57v-58.86h11.3v54.55l9.21,9.07h23.34l11-9.51v-54.1h11.59v74.31h-9.21l-0.15-6.69h-2.23
			l-7.88,6.69h-31.66L2362.31,364.57z"/>
		<path class="st0" d="M2451.34,305.71h9.21l0.15,7.88h2.53l9.36-7.88h32.7l16.5,16.65v41.02l-16.5,16.65h-42.36v29.73h-11.59
			V305.71z M2499.94,369.33l10.4-10.4v-32.1l-10.4-10.4h-24.23l-12.93,10.85v42.06H2499.94z"/>
		<path class="st0" d="M2541.56,363.38v-40.87l16.5-16.8h38.64l16.65,16.65v26.75h-60.49v9.81l10.4,10.4h44.59v10.7h-49.79
			L2541.56,363.38z M2602.05,338.41l-0.15-11.59l-10.4-10.4h-28.24l-10.4,10.4l0.15,11.59H2602.05z"/>
		<path class="st0" d="M2632.82,305.71h9.21l0.15,6.54h2.38l7.43-6.54h30.32v10.7h-26.9l-11.15,9.22l0.15,54.4h-11.59V305.71z"/>
		<path class="st0" d="M2691.82,283.42h13.38v13.38h-13.38V283.42z M2692.71,305.71h11.59v74.31h-11.59V305.71z"/>
		<path class="st0" d="M2725.56,363.38v-40.87l16.5-16.8h40.28l16.8,16.65v41.02l-16.8,16.65h-40.28L2725.56,363.38z
			 M2777.28,369.33l10.4-10.4v-32.1l-10.4-10.4h-30.02l-10.4,10.26v32.25l10.55,10.4H2777.28z"/>
		<path class="st0" d="M2820.39,305.71h9.21l0.15,6.54h2.38l7.43-6.54h30.32v10.7h-26.9l-11.15,9.22l0.15,54.4h-11.59V305.71z"/>
		<path class="st0" d="M2926.51,363.38v-40.87l16.5-16.8h42.36v-29.73h11.44v104.04h-9.22V372h-2.53l-9.36,8.03H2943L2926.51,363.38
			z M2972.58,369.33l12.78-10.85v-42.06h-37.16l-10.4,10.26v32.25l10.55,10.4H2972.58z"/>
		<path class="st0" d="M3018.95,363.38v-40.87l16.5-16.8h38.64l16.65,16.65v26.75h-60.49v9.81l10.4,10.4h44.59v10.7h-49.79
			L3018.95,363.38z M3079.45,338.41l-0.15-11.59l-10.4-10.4h-28.24l-10.4,10.4l0.15,11.59H3079.45z"/>
		<path class="st0" d="M1620.52,550.28v-40.87l16.5-16.8h38.64l16.65,16.65v26.75h-60.49v9.81l10.4,10.4h44.59v10.7h-49.79
			L1620.52,550.28z M1681.01,525.31l-0.15-11.59l-10.4-10.4h-28.24l-10.4,10.4l0.15,11.59H1681.01z"/>
		<path class="st0" d="M1711.78,492.61h9.21v6.69h2.53l7.73-6.69h34.18l15.31,15.31v59.01h-11.44l0.15-54.4l-9.07-9.22h-25.86
			l-11.3,9.51l0.15,54.1h-11.59V492.61z"/>
		<path class="st0" d="M1806.9,586.1h47.71l5.65-5.8v-19.47h-2.23l-7.28,6.09h-32.85l-16.5-16.65v-40.87l16.5-16.8h53.8v92
			l-12.04,12.04h-52.91L1806.9,586.1z M1847.47,556.22l12.93-10.85l-0.15-42.06h-37.16l-10.4,10.26v32.25l10.55,10.4H1847.47z"/>
		<path class="st0" d="M1893.1,550.28v-40.87l16.5-16.8h38.64l16.65,16.65v26.75h-60.49v9.81l10.4,10.4h44.59v10.7h-49.79
			L1893.1,550.28z M1953.59,525.31l-0.15-11.59l-10.4-10.4h-28.24l-10.4,10.4l0.15,11.59H1953.59z"/>
		<path class="st0" d="M1984.36,492.61h9.21v6.69h2.53l7.73-6.69h34.18l15.31,15.31v59.01h-11.44l0.15-54.4l-9.07-9.22h-25.86
			l-11.3,9.51l0.15,54.1h-11.59V492.61z"/>
		<path class="st0" d="M2076.21,462.89h11.3v35.37h2.53l6.54-5.65h33.14l15.31,15.31v59.01h-11.44l0.15-54.4l-9.36-9.22h-24.67
			l-12.19,10.26v53.36h-11.3V462.89z"/>
		<path class="st0" d="M2163.46,554.44l-0.15-19.92l13.82-13.67h43.4l0.15-9.36l-8.03-8.32h-39.83v-10.55h44.74l14.42,14.42v59.9
			h-9.07v-7.73h-2.38l-9.36,7.73h-35.37L2163.46,554.44z M2207.75,556.37l12.78-10.85v-13.97h-38.35l-7.43,7.28l0.15,11.15
			l6.09,6.39H2207.75z"/>
		<path class="st0" d="M2253.97,492.61h9.21l0.15,6.54h2.38l7.43-6.54h30.32v10.7h-26.9l-11.15,9.22l0.15,54.4h-11.59V492.61z"/>
		<path class="st0" d="M2312.97,470.32h13.38v13.38h-13.38V470.32z M2313.87,492.61h11.59v74.31h-11.59V492.61z"/>
		<path class="st0" d="M2344.48,554.44l-0.15-19.92l13.82-13.67h43.4l0.15-9.36l-8.03-8.32h-39.83v-10.55h44.74l14.42,14.42v59.9
			h-9.07v-7.73h-2.38l-9.36,7.73h-35.37L2344.48,554.44z M2388.77,556.37l12.78-10.85v-13.97h-38.35l-7.43,7.28l0.15,11.15
			l6.09,6.39H2388.77z"/>
		<path class="st0" d="M2484.19,550.28v-40.87l16.5-16.8h42.36v-29.73h11.44v104.04h-9.22v-8.03h-2.53l-9.36,8.03h-32.7
			L2484.19,550.28z M2530.27,556.22l12.78-10.85v-42.06h-37.16l-10.4,10.26v32.25l10.55,10.4H2530.27z"/>
		<path class="st0" d="M2576.64,550.28v-40.87l16.5-16.8h38.64l16.65,16.65v26.75h-60.49v9.81l10.4,10.4h44.59v10.7h-49.79
			L2576.64,550.28z M2637.13,525.31l-0.15-11.59l-10.4-10.4h-28.24l-10.4,10.4l0.15,11.59H2637.13z"/>
		<path class="st0" d="M2720.81,473.59h-14.27l-0.3-10.7h25.86v104.04h-11.44L2720.81,473.59z"/>
		<path class="st0" d="M2754.7,470.32h13.38v13.38h-13.38V470.32z M2755.59,492.61h11.59v74.31h-11.59V492.61z"/>
		<path class="st0" d="M2788.28,556.37h48.16l6.24-6.39v-9.21l-6.24-6.39h-36.27l-12.63-12.19V505.1l12.49-12.49h50.09l0.3,10.7
			h-45.03l-6.39,6.09v8.17l6.24,6.24h36.41l12.34,12.48l0.15,18.13l-12.34,12.49h-53.21L2788.28,556.37z"/>
		<path class="st0" d="M2873.89,462.89h11.3v35.97h2.53l7.13-6.24h32.7l16.65,16.65l-0.15,41.02l-16.5,16.65h-53.65V462.89z
			 M2922.35,556.22l10.55-10.4l-0.15-32.1l-10.4-10.4h-24.23l-12.93,10.85l0.15,42.06H2922.35z"/>
		<path class="st0" d="M2964.11,550.28v-40.87l16.5-16.8h40.28l16.8,16.65v41.02l-16.8,16.65h-40.28L2964.11,550.28z
			 M3015.83,556.22l10.4-10.4v-32.1l-10.4-10.4h-30.02l-10.4,10.26v32.25l10.55,10.4H3015.83z"/>
		<path class="st0" d="M3055.37,554.44l-0.15-19.92l13.82-13.67h43.4l0.15-9.36l-8.03-8.32h-39.83v-10.55h44.74l14.42,14.42v59.9
			h-9.07v-7.73h-2.38l-9.36,7.73h-35.37L3055.37,554.44z M3099.66,556.37l12.78-10.85v-13.97h-38.35l-7.43,7.28l0.15,11.15
			l6.09,6.39H3099.66z"/>
	</g>
</g>
<rect x="1.21" class="st1" width="3406.14" height="850.39"/></svg>

  <!-- Authors -->
  <text x="148.5" y="408" font-size="5.5" font-weight="600"
        fill="#FFFFFF" text-anchor="middle" letter-spacing="0.3">Daniel Cabaça · Bruno Pinto</text>

  <!-- Year (same style as authors) -->
  <text x="280" y="408" font-size="5.5" font-weight="600"
        fill="#FFFFFF" text-anchor="end" letter-spacing="2">2026</text>

</svg>
